<svg width="126" height="126" viewBox="0 0 126 126" fill="none" xmlns="http://www.w3.org/2000/svg">
<path fill-rule="evenodd" clip-rule="evenodd" d="M12.6021 57.0462C13.366 56.9528 14.1813 56.9858 14.8917 57.2873C16.4023 57.9285 16.8317 59.7131 16.8109 61.1636C16.7886 62.7248 16.4571 64.43 17.644 65.6879C18.1896 66.2663 18.8684 66.7088 19.4041 67.2978C19.9766 67.9271 20.4258 68.6472 20.7584 69.4205C21.369 70.8408 21.6688 72.5112 21.1103 74.0011C20.6186 75.313 19.3816 76.497 19.6489 77.9887C19.9277 79.5448 21.4966 80.7344 22.4775 81.8935C23.5875 83.2052 24.6096 84.8816 24.7775 86.6017C24.9385 88.2502 24.2209 89.9174 23.1197 91.1636C20.9194 93.6535 17.612 94.8742 14.2772 94.8666C12.8613 94.8634 11.2583 94.7994 10.0364 94.0385C9.65878 93.8034 9.45955 93.5395 9.23506 93.1727C9.03378 92.8438 8.76789 92.6299 8.46012 92.3972C7.78396 91.886 7.29566 91.197 6.98403 90.4258C5.77392 87.4304 6.74111 83.7247 8.43499 81.0648C8.83636 80.4346 9.16497 79.8281 8.96998 79.077C8.7665 78.2929 8.2664 77.5856 7.82407 76.9116C7.38697 76.2455 6.88797 75.61 6.54633 74.8897C6.18853 74.1352 6.08777 73.3451 6.15099 72.5194C6.26981 70.9683 6.93939 69.5369 7.88737 68.2895C8.80046 67.088 9.87257 65.9383 9.87497 64.3639C9.87761 62.6952 8.76206 61.2109 9.2373 59.5144C9.43408 58.8119 9.82932 58.0912 10.4663 57.67C11.0771 57.2661 11.8837 57.1339 12.6021 57.0462Z" fill="#DDE3E9"/>
<path fill-rule="evenodd" clip-rule="evenodd" d="M12.1029 59.7137C12.1173 59.4896 12.3831 59.3552 12.5924 59.4137C12.8678 59.4907 12.8625 59.7481 12.8553 59.9774C12.833 60.6822 12.935 61.3672 13.1044 62.0511C13.4566 63.473 14.1074 64.783 14.623 66.1488C15.1381 67.5135 15.3799 68.9225 15.0777 70.3665C14.7928 71.728 14.3453 73.0542 14.0537 74.4175C13.7967 75.619 13.5233 76.8861 13.9146 78.0845C14.2912 79.2381 15.1238 80.1776 15.7233 81.2201C16.9644 83.3782 17.515 85.7723 17.5886 88.2361C17.6228 89.3802 17.592 90.5348 17.3266 91.6568C17.1738 92.3029 16.9686 93.1761 16.4149 93.6222C16.1596 93.8279 15.7229 93.899 15.508 93.5944C15.3063 93.3087 15.4833 92.8664 15.5473 92.5618C15.8247 91.2436 15.8805 89.8964 15.8141 88.5578C15.7498 87.2612 15.5966 85.9668 15.1886 84.7286C14.8098 83.5794 14.2344 82.5473 13.5573 81.542C12.8672 80.5176 12.1499 79.491 11.8647 78.2772C11.575 77.0443 11.8104 75.7899 12.1251 74.5806C12.4579 73.3015 12.8938 72.0591 13.3444 70.8147C13.7836 69.6021 13.9393 68.4548 13.6968 67.1857C13.2179 64.6783 11.9359 62.3249 12.1029 59.7137Z" fill="#C5CFD6"/>
<path fill-rule="evenodd" clip-rule="evenodd" d="M32.7713 60.0886C33.7166 60.3756 34.6555 60.8387 35.3293 61.5649C36.7621 63.1091 36.3225 65.4429 35.5315 67.1476C34.6801 68.9823 33.39 70.8264 34.1173 72.9315C34.4515 73.8993 35.0137 74.7758 35.3308 75.751C35.6696 76.7931 35.8158 77.8784 35.7972 78.9659C35.7627 80.9633 35.2314 83.0946 33.7888 84.5662C32.5188 85.8618 30.442 86.6186 29.9671 88.5217C29.4716 90.507 30.6829 92.7301 31.2208 94.6111C31.8294 96.7398 32.1421 99.2541 31.4299 101.376C30.7474 103.409 29.0245 105.007 27.0742 105.908C23.1774 107.708 18.653 107.431 14.7456 105.688C13.0866 104.947 11.2402 104.038 10.2092 102.502C9.89061 102.027 9.7964 101.612 9.72696 101.061C9.66472 100.568 9.46593 100.176 9.22797 99.7409C8.70509 98.7846 8.4965 97.7158 8.53863 96.6416C8.70255 92.4697 11.7957 88.5904 15.1884 86.3258C15.9922 85.7893 16.6982 85.2431 16.8665 84.2533C17.0423 83.2201 16.8296 82.1236 16.667 81.0964C16.5064 80.0812 16.257 79.0701 16.237 78.0406C16.2162 76.9621 16.5156 75.9753 17.0262 75.0317C17.9854 73.2591 19.5273 71.9147 21.2986 70.9326C23.0046 69.9866 24.8698 69.1847 25.7048 67.324C26.5898 65.352 26.066 63.0163 27.5201 61.2572C28.1222 60.5288 28.9667 59.882 29.9364 59.7153C30.8664 59.5554 31.8823 59.8187 32.7713 60.0886Z" fill="#DDE3E9"/>
<path fill-rule="evenodd" clip-rule="evenodd" d="M30.8403 63.3496C30.9744 63.0917 31.3557 63.0719 31.5697 63.2508C31.8515 63.4864 31.7105 63.7884 31.5819 64.0561C31.1867 64.8791 30.9473 65.7438 30.7872 66.6425C30.4543 68.5109 30.5292 70.4034 30.4168 72.291C30.3044 74.1772 29.8493 75.9725 28.7396 77.5241C27.6934 78.9872 26.4755 80.3231 25.4206 81.7847C24.4909 83.0729 23.5075 84.4301 23.3375 86.0545C23.1736 87.618 23.6551 89.1669 23.8102 90.7157C24.1311 93.9219 23.5211 97.0457 22.3169 100.002C21.7576 101.375 21.117 102.726 20.219 103.916C19.7019 104.601 19.0046 105.527 18.1236 105.765C17.7173 105.875 17.1694 105.73 17.0777 105.257C16.9915 104.813 17.4301 104.382 17.6644 104.055C18.6792 102.639 19.45 101.073 20.0734 99.4529C20.6773 97.8837 21.1761 96.2706 21.3474 94.5903C21.5064 93.0309 21.3742 91.507 21.1088 89.9617C20.8385 88.3868 20.5373 86.7951 20.8396 85.2082C21.1465 83.5964 22.0787 82.2342 23.08 80.9671C24.139 79.6268 25.2994 78.384 26.4781 77.1465C27.6267 75.9406 28.4096 74.6635 28.7908 73.0335C29.544 69.8132 29.2775 66.3542 30.8403 63.3496Z" fill="#C5CFD6"/>
<path fill-rule="evenodd" clip-rule="evenodd" d="M3.54826 71.9333C5.12007 71.9333 6.50195 72.7665 7.45416 73.9488C8.5688 75.3328 8.79392 77.023 9.24654 78.6725C9.47177 79.4934 9.85913 80.3083 10.538 80.8661C11.1554 81.3733 11.9392 81.4748 12.6783 81.7226C14.1553 82.2178 15.3479 83.4109 15.8189 84.8665C16.3935 86.6422 15.7849 88.4329 15.8897 90.2324C15.9859 91.885 17.6154 92.9161 18.9264 93.7083C20.2191 94.4895 21.3836 95.2208 21.773 96.7426C22.1859 98.3567 22.3244 100.158 21.7525 101.753C20.8004 104.408 18.014 105.577 15.3216 105.758C12.8782 105.922 9.80584 105.664 7.97084 103.891C6.87281 102.829 6.47516 101.345 6.5245 99.868C6.55515 98.9497 6.73706 98.0398 6.97227 97.1524C7.13896 96.5234 7.36419 95.8971 7.42835 95.2471C7.5989 93.5179 6.00069 93.1858 4.64026 92.711C2.91155 92.1076 1.7013 90.9679 0.859731 89.3801C0.0760006 87.9017 -0.252836 86.2422 0.216987 84.6145C0.456941 83.7833 0.89216 83.0293 1.4824 82.3879C1.74223 82.1056 2.10844 81.8702 2.34296 81.5736C2.56185 81.2966 2.51419 80.9377 2.43876 80.6133C2.08995 79.1149 1.00319 77.874 0.614537 76.3783C0.263653 75.0281 0.471079 73.3478 1.70545 72.4768C2.23875 72.1004 2.89642 71.9375 3.54826 71.9333Z" fill="#C5CFD6"/>
<path fill-rule="evenodd" clip-rule="evenodd" d="M5.69013 75.8377C7.35608 77.6123 7.80891 80.02 7.9418 82.3537C8.01624 83.6623 7.93876 85.0425 8.32323 86.3118C8.65218 87.3982 9.42337 88.2286 10.2183 89.0135C11.8184 90.5935 13.603 92.1997 14.071 94.4863C14.3456 95.8282 14.1602 97.2143 14.5397 98.5414C14.8847 99.7478 15.4922 100.933 16.2311 101.952C16.8261 102.772 17.6012 103.4 18.2516 104.165C18.45 104.398 18.7342 104.742 18.6523 105.071C18.5565 105.457 18.0649 105.579 17.7161 105.519C16.903 105.377 16.2185 104.601 15.6868 104.036C14.9094 103.211 14.2487 102.323 13.7117 101.327C13.1156 100.221 12.6356 99.0477 12.4305 97.8069C12.2177 96.5196 12.3236 95.1781 11.8377 93.9427C11.0199 91.864 9.03635 90.6373 7.60226 89.0172C5.81547 86.9984 6.08195 84.4858 6.26496 82.0024C6.36549 80.6377 6.46544 79.0966 5.77585 77.8505C5.51261 77.3749 4.92571 76.9314 4.81253 76.3908C4.70886 75.8955 5.27467 75.3949 5.69013 75.8377Z" fill="#AFB9C5"/>
<path fill-rule="evenodd" clip-rule="evenodd" d="M7.46664 105C7.46675 115.149 9.12297 120.467 17.8667 120.467C26.6104 120.467 28.2666 115.149 28.2666 105H7.46664Z" fill="#89C5CC"/>
<path fill-rule="evenodd" clip-rule="evenodd" d="M88.9324 18.2649C88.1976 16.2921 88.001 14.1306 88.8987 12.1155C91.4854 6.30956 99.3022 10.639 99.8211 14.2334C100.34 17.8277 97.3719 25.3859 95.0911 25.1644C94.1816 25.0761 92.6013 23.9063 91.1939 22.1634L89.4116 30.5812L82.7298 28.1492L88.9324 18.2649Z" fill="#57331F"/>
<path fill-rule="evenodd" clip-rule="evenodd" d="M91.3975 18.6877C89.99 19.9765 88.4081 20.7572 87.2632 20.3405C85.0886 19.549 84.6006 16.0788 85.7384 12.9529C85.7784 12.8431 85.8202 12.7348 85.8639 12.6281C82.9891 13.3694 80.0837 15.8356 77.04 14.7278C72.8991 13.2206 74.2945 4.26968 80.08 6.37543C84.0146 7.8075 85.7412 9.08559 87.1004 10.541C87.7669 9.73329 88.5523 9.13614 89.3639 8.81488C89.5719 8.70248 89.856 8.62589 90.2015 8.58478C90.4155 8.5521 90.6291 8.53979 90.8406 8.54903C91.9811 8.54549 93.533 8.81506 95.1811 9.35059C95.4889 9.45059 95.7885 9.55612 96.0783 9.66601C96.6412 8.13415 98.3378 7.34543 99.8725 7.90401C101.41 8.46366 102.203 10.1638 101.643 11.7015C101.102 13.1885 99.4941 13.9789 97.9981 13.5231C97.0644 13.4766 95.9166 13.2742 94.6912 12.9191C94.6484 13.3981 94.5309 13.9172 94.3269 14.4778C94.1467 14.9729 93.901 15.478 93.6063 15.9745C93.4591 15.5717 93.1855 15.2442 92.8334 15.1161C91.8485 14.7576 90.868 15.3183 90.5549 16.1786C90.1575 17.2704 90.5004 18.2896 91.3975 18.6877Z" fill="#191847"/>
<path fill-rule="evenodd" clip-rule="evenodd" d="M64.9544 83.3014C72.0619 85.2894 78.1941 86.2834 83.3509 86.2834C88.5077 86.2834 93.2976 84.7526 97.7205 81.6912C90.7652 79.6507 85.0371 78.6304 80.5363 78.6304C76.0356 78.6304 70.8416 80.1874 64.9544 83.3014Z" fill="#1F28CF"/>
<path fill-rule="evenodd" clip-rule="evenodd" d="M89.5037 89.1488C89.4352 89.0458 89.3773 88.9337 89.3314 88.8123C88.3813 86.2999 73.1639 59.1954 71.6479 54.2399H88.7806C89.9332 58.0076 95.1212 81.6516 95.8513 86.3689C98.155 93.81 102.898 117.909 103.504 119.578C104.14 121.335 100.557 123.164 99.6015 121.005C98.0818 117.57 94.461 108.064 92.8488 102.259C91.3373 96.8176 90.1066 91.9221 89.5037 89.1488Z" fill="#3D2216"/>
<path fill-rule="evenodd" clip-rule="evenodd" d="M75.4869 92.4581C68.5297 94.2164 43.0819 97.3953 41.3356 97.8939C39.5391 98.4068 37.964 94.7039 40.1845 93.9018C43.7177 92.6255 53.4532 89.6766 59.3559 88.4732C64.1036 87.5053 68.436 86.7155 71.3447 86.2529C71.0982 78.0825 69.9718 58.4748 70.7101 54.2399H85.8694C85.1614 58.3009 79.1764 87.9321 78.0641 90.8981C77.711 91.957 76.6577 92.425 75.4869 92.4581Z" fill="#57331F"/>
<path fill-rule="evenodd" clip-rule="evenodd" d="M40.3457 92.9159C39.4168 92.7431 38.736 92.6949 38.3034 92.7711C37.7772 92.8639 37.0249 93.087 36.0464 93.4403C36.154 94.0506 37.1213 99.5362 38.9482 109.897C40.4374 110.075 41.1571 109.694 41.1074 108.753C41.0576 107.811 41.0245 107.028 41.0079 106.403L43.0691 98.1524C43.1087 97.9936 43.0122 97.8328 42.8535 97.7931C42.8507 97.7925 42.848 97.7918 42.8453 97.7912L41.5659 97.5098C41.0175 96.7271 40.6963 96.069 40.6023 95.5357C40.5259 95.1025 40.5954 94.4732 40.8107 93.6481L40.8108 93.6481C40.8934 93.3314 40.7037 93.0077 40.387 92.9251C40.3734 92.9215 40.3596 92.9185 40.3457 92.9159Z" fill="#E4E4E4"/>
<path fill-rule="evenodd" clip-rule="evenodd" d="M98.5139 120.726C98.1825 121.61 98.0168 122.272 98.0168 122.712C98.0168 123.246 98.1058 124.026 98.2838 125.051C98.9036 125.051 104.474 125.051 114.994 125.051C115.429 123.615 115.178 122.84 114.242 122.726C113.307 122.611 112.53 122.508 111.911 122.415L104.144 118.953C103.994 118.886 103.819 118.953 103.753 119.103C103.751 119.105 103.75 119.108 103.749 119.111L103.25 120.322C102.384 120.726 101.68 120.928 101.139 120.928C100.699 120.928 100.091 120.75 99.3158 120.395L99.3158 120.395C99.0183 120.258 98.6666 120.389 98.5302 120.687C98.5243 120.699 98.5189 120.712 98.5139 120.726Z" fill="#E4E4E4"/>
<path fill-rule="evenodd" clip-rule="evenodd" d="M70.7591 54.2399C77.4392 52.3287 83.7598 52.3287 89.7209 54.2399C91.7949 63.7023 96.8343 67.458 97.7205 81.9654C87.647 86.9707 75.2033 78.3957 64.8335 83.2769C61.8707 76.4494 66.0186 60.0069 70.7591 54.2399Z" fill="#2B44FF"/>
<path fill-rule="evenodd" clip-rule="evenodd" d="M103.37 51.6931L114.992 49.9501C117.298 48.6374 119.425 47.7401 121.374 47.2582C121.924 47.234 122.805 47.4179 121.52 48.5101C120.236 49.6023 118.934 50.8087 119.178 51.3774C119.422 51.9462 120.632 51.7148 120.851 52.5919C120.996 53.1767 119.028 53.302 114.944 52.9679L105.562 56.8045L103.37 51.6931ZM60.961 41.6673L66.5363 44.4022C57.6869 53.753 52.9595 58.699 52.3542 59.2401C50.9922 60.4577 51.1687 63.4053 51.12 64.9195C48.9013 64.8419 50.5608 61.9445 47.7422 61.8871C45.1695 61.8346 42.7145 62.8113 41.0151 60.1515C40.8062 59.8245 40.8154 58.9799 41.8674 58.8273C44.4883 58.447 48.4673 57.4863 49.227 56.9029C50.2631 56.1074 54.1744 51.0289 60.961 41.6673Z" fill="#57331F"/>
<path fill-rule="evenodd" clip-rule="evenodd" d="M88.6932 25.6976L91.29 25.9407C95.3054 32.593 94.1636 45.6842 97.3254 48.3047C100.315 50.7823 105.552 50.5632 111.843 50.0582L112.558 54.4257C105.84 58.625 93.4555 60.3753 89.6727 56.4681C83.6248 50.2214 86.0924 34.3592 88.6932 25.6976Z" fill="#DB2721"/>
<path fill-rule="evenodd" clip-rule="evenodd" d="M69.5747 53.7424C79.533 56.4107 86.8581 58.3735 91.5501 59.6307C92.5542 59.8997 92.7502 58.4114 92.7994 57.647C93.3675 48.8257 89.2461 38.0482 92.4395 26.1302L86.3649 23.4462C78.8817 30.4019 74.3105 40.2096 69.5747 53.7424Z" fill="#DDE3E9"/>
<path fill-rule="evenodd" clip-rule="evenodd" d="M69.6542 44.6783C63.0276 51.4899 57.7164 56.2492 53.7208 58.9562L49.3542 56.8274C57.2101 39.3775 69.4106 28.2139 85.9559 23.3367L87.1 23.6432L88.4657 24.0092C89.0028 44.7667 87.1379 58.0019 82.8709 63.7147L63.0896 58.4143C64.6567 53.8175 66.9865 49.1363 69.6542 44.6783L69.6542 44.6783Z" fill="#FF4133"/>
</svg>
