<svg width="24" height="24" viewBox="0 0 24 24" fill="none" xmlns="http://www.w3.org/2000/svg">
<path d="M10.77 21.7499C10.2427 21.7507 9.72441 21.6125 9.26751 21.3491C8.81061 21.0858 8.4312 20.7066 8.16752 20.2499C6.90519 18.0304 5.28314 16.0357 3.36752 14.3474C2.77478 13.8413 2.4023 13.1243 2.32894 12.3484C2.25558 11.5724 2.4871 10.7983 2.97448 10.1901C3.46186 9.58184 4.16684 9.18715 4.94014 9.0896C5.71344 8.99204 6.49435 9.19928 7.11752 9.66743C8.24099 10.6018 9.28 11.6333 10.2225 12.7499C11.9715 9.41843 14.0493 6.27025 16.425 3.35243C16.9283 2.7358 17.6559 2.34435 18.4477 2.26417C19.2396 2.184 20.0309 2.42168 20.6475 2.92493C21.2641 3.42818 21.6556 4.15577 21.7358 4.94764C21.8159 5.73952 21.5783 6.5308 21.075 7.14743C17.9548 10.954 15.4263 15.2094 13.575 19.7699C13.383 20.3087 13.0409 20.7814 12.5891 21.1322C12.1373 21.483 11.5946 21.6973 11.025 21.7499H10.77Z" fill="#B7D43C"/>
</svg>
