<svg width="51" height="50" viewBox="0 0 51 50" fill="none" xmlns="http://www.w3.org/2000/svg">
<path d="M15.2116 0.452148C15.2116 2.50825 15.2116 4.61198 15.5974 6.80304C15.091 7.08089 14.5123 7.47782 13.9256 8.00971C12.5029 9.29576 11.0962 11.598 11.0962 14.7416C11.0962 17.6631 12.0367 20.1161 13.5397 21.9182C15.0428 23.7202 17.0362 24.8793 19.0055 25.7287C22.9521 27.4276 27.2925 28.1182 28.5223 28.7136L28.9724 28.9041H31.0301L31.6732 28.0785C31.6732 28.0785 35.7885 22.2992 35.7885 13.8525C35.7885 9.20844 34.3658 6.16001 32.4448 4.45321C30.5237 2.74641 28.3616 2.48443 27.2363 2.48443C24.7767 2.48443 23.0646 3.73873 21.6419 4.32619L23.1852 8.07322C25.0339 7.31111 26.5048 6.549 27.2363 6.549C27.6623 6.549 28.7554 6.68396 29.6798 7.50164C30.6041 8.31931 31.6732 9.97848 31.6732 13.8525C31.6732 19.8144 29.6315 23.3312 28.8438 24.5855C26.3039 23.6805 23.3379 23.1566 20.6131 21.9817C19.0055 21.291 17.6873 20.4336 16.7549 19.3143C15.8225 18.1949 15.2116 16.8454 15.2116 14.7416C15.2116 12.7332 15.9913 11.6932 16.7549 10.9946C16.8031 10.9549 16.8353 10.9708 16.8835 10.9311C18.0088 13.273 19.8655 15.6228 22.7994 17.9171L25.3072 14.7416C22.0599 12.2013 20.7336 10.0261 20.0343 7.81918C19.335 5.61225 19.327 3.2386 19.327 0.452148H15.2116ZM38.8108 16.1388C38.7545 17.6313 38.6339 19.0682 38.4893 20.3304C43.2557 21.6165 46.077 23.4265 46.077 24.8396C46.077 27.2688 37.8703 30.9364 25.5001 30.9364C13.1298 30.9364 4.92315 27.2688 4.92315 24.8396C4.92315 23.744 6.62718 22.3707 9.61727 21.2196C8.99031 20.0843 8.52412 18.7903 8.26691 17.3455C3.79785 19.0523 0.80777 21.5768 0.80777 24.8396C0.80777 30.4919 2.82527 35.1995 4.92315 38.5575C7.02104 41.9155 9.36005 44.0828 9.61727 44.3368C11.9965 46.6866 17.1407 49.227 25.5001 49.227C33.8434 49.227 38.8188 46.639 41.3186 44.4003C41.9214 43.8684 43.9952 41.9155 46.077 38.5575C48.1588 35.1995 50.1924 30.4839 50.1924 24.8396C50.1924 20.6956 45.3857 17.7583 38.8108 16.1388ZM6.0163 31.3175C10.7747 33.7546 18.1535 35.001 25.5001 35.001C32.8788 35.001 40.2897 33.7705 45.0482 31.3175C44.4051 33.2545 43.5049 34.9454 42.6046 36.3982C40.7961 39.3037 38.7947 41.201 38.5536 41.4154C36.8978 42.8999 32.9994 45.1624 25.5001 45.1624C18.0168 45.1624 13.7166 42.6697 12.5109 41.4789C12.0125 40.9867 10.2764 39.3117 8.45981 36.3982C7.55957 34.9613 6.66737 33.2307 6.0163 31.3175Z" fill="#0094DA"/>
</svg>

