<svg width="67" height="66" viewBox="0 0 67 66" fill="none" xmlns="http://www.w3.org/2000/svg">
<path d="M37.6153 10.4844C30.3089 10.4606 24.5859 12.1912 20.7036 15.7239C16.7892 19.2407 14.9807 24.4484 14.9807 30.6087V32.133C13.7268 33.3476 12.923 34.8877 12.923 36.6183C12.923 39.3809 14.8762 41.3338 17.3438 42.2467C18.7263 46.7003 19.4658 49.8519 22.5363 53.9324L22.5684 53.9959L22.6167 54.0515C25.5826 57.4492 29.5292 59.2592 33.4999 59.2592C37.4706 59.2592 41.4172 57.4492 44.3832 54.0515L44.4314 53.9959L44.4636 53.9324C47.534 49.8519 48.2735 46.7003 49.648 42.2467C52.1236 41.3338 54.0768 39.3809 54.0768 36.6183C54.0768 34.8877 53.2731 33.3476 52.0192 32.133V30.6087C52.0192 24.9723 50.9742 20.9713 48.7317 18.2642C46.7945 15.9541 43.9974 15.0332 41.0716 14.7871L38.8933 10.4844H37.6153ZM36.4257 14.6918L37.6555 17.129C37.6555 17.2322 37.6796 17.3751 37.6796 17.4148V17.4386C37.6796 19.2248 37.3099 19.4868 36.5061 19.9154C35.6862 20.3441 34.0786 20.5664 32.246 20.7728C30.4375 20.9713 28.3557 21.1539 26.4427 22.297C24.5457 23.4322 23.2115 25.7662 23.2115 28.7749H27.3268C27.3268 26.703 27.777 26.2505 28.5808 25.7662C29.3845 25.2819 30.9278 24.9962 32.7203 24.8136C34.4886 24.6072 36.5061 24.4881 38.395 23.5116C40.0026 22.6781 41.2806 20.9713 41.6664 18.7723C43.3142 19.0422 44.552 19.6693 45.5326 20.8443C46.891 22.4717 47.9038 25.4804 47.9038 30.6087V34.0144L48.9326 34.6098C49.3425 34.8321 49.9615 35.8641 49.9615 36.6183C49.9615 37.4756 48.6272 38.8728 47.743 38.9363L46.3605 39.0634L45.9265 40.3574C44.3591 45.3746 43.9733 47.7165 41.1922 51.4555C38.9496 54.0197 36.2167 55.1946 33.4999 55.1946C30.7831 55.1946 28.0503 54.0197 25.8077 51.4555C23.0266 47.7165 22.6408 45.3746 21.0734 40.3574L20.6393 39.0634L19.2568 38.9363C18.3968 38.8728 17.0384 37.4518 17.0384 36.6183C17.0384 35.8641 17.6573 34.8321 18.0672 34.6098L19.0961 34.0144V30.6087C19.0961 25.2184 20.5831 21.3603 23.4767 18.7167C26.1774 16.2557 30.4938 14.8744 36.4257 14.6918ZM28.8299 35.5227L25.2772 36.7453C25.1968 37.6662 25.7755 38.5474 26.6919 38.8411C27.777 39.1824 28.9344 38.587 29.28 37.5233C29.5131 36.8088 29.3122 36.0388 28.8299 35.5227ZM38.1619 35.5227C37.6876 36.0388 37.4787 36.8088 37.7118 37.5233C38.0574 38.587 39.2229 39.1824 40.3 38.8411C41.2243 38.5474 41.795 37.6662 41.7146 36.7453L38.1619 35.5227ZM8.80761 45.0332C7.67427 45.0332 6.74992 45.9461 6.74992 47.0655C6.74992 48.1848 7.67427 49.0978 8.80761 49.0978C10.0856 49.0978 12.923 47.0655 12.923 47.0655C12.923 47.0655 10.1419 45.0332 8.80761 45.0332ZM33.4999 45.0332C33.2186 45.0332 32.9373 45.065 32.672 45.1205C32.1415 45.2237 31.6351 45.4381 31.2011 45.7318C30.542 46.1684 30.0276 46.7876 29.7061 47.518C29.5051 48.0022 29.3845 48.5421 29.3845 49.0978H37.6153C37.6153 46.8591 35.7666 45.0332 33.4999 45.0332ZM58.1922 45.0332C56.8579 45.0332 54.0768 47.0655 54.0768 47.0655C54.0768 47.0655 56.9142 49.0978 58.1922 49.0978C59.3256 49.0978 60.2499 48.1848 60.2499 47.0655C60.2499 45.9461 59.3256 45.0332 58.1922 45.0332ZM14.8682 53.8292C14.8682 53.8292 11.7736 55.1629 11.1225 56.2822C10.5759 57.2348 10.9135 58.4574 11.8781 58.9972C12.8346 59.537 14.0724 59.2116 14.619 58.2589C15.2379 57.1872 14.8682 53.8292 14.8682 53.8292ZM52.1236 53.8292C52.1236 53.8292 51.7619 57.1872 52.3809 58.2589C52.9274 59.2116 54.1653 59.537 55.1298 58.9972C56.0863 58.4574 56.4239 57.2348 55.8773 56.2822C55.2263 55.1629 52.1236 53.8292 52.1236 53.8292Z" fill="#0094DA"/>
</svg>
