<svg width="67" height="66" viewBox="0 0 67 66" fill="none" xmlns="http://www.w3.org/2000/svg">
<g clip-path="url(#clip0)">
<path d="M0.576843 12.5167V51.1301H27.3268C29.6257 51.1301 31.4422 52.9243 31.4422 55.1947H35.5576C35.5576 52.9243 37.3742 51.1301 39.673 51.1301H66.423V12.5167H39.673C37.2054 12.5167 35.011 13.6519 33.4999 15.3746C31.9888 13.6519 29.7945 12.5167 27.3268 12.5167H0.576843ZM4.69223 16.5813H27.3268C29.6257 16.5813 31.4422 18.3754 31.4422 20.6459H35.5576C35.5576 18.3754 37.3742 16.5813 39.673 16.5813H62.3076V47.0656H39.673C37.2054 47.0656 35.011 48.2008 33.4999 49.9235C31.9888 48.2008 29.7945 47.0656 27.3268 47.0656H4.69223V16.5813ZM8.80761 22.6781V26.7427H17.0384V22.6781H8.80761ZM21.1538 22.6781V26.7427H25.2691V22.6781H21.1538ZM41.7307 22.6781V26.7427H49.9615V22.6781H41.7307ZM54.0768 22.6781V26.7427H58.1922V22.6781H54.0768ZM8.80761 30.8073V34.8719H17.0384V30.8073H8.80761ZM41.7307 30.8073V34.8719H49.9615V30.8073H41.7307ZM8.80761 38.9364V43.001H17.0384V38.9364H8.80761ZM21.1538 38.9364V43.001H25.2691V38.9364H21.1538Z" fill="#0094DA"/>
</g>
<defs>
<clipPath id="clip0">
<rect width="65.8462" height="65.0331" fill="white" transform="translate(0.576843 0.322998)"/>
</clipPath>
</defs>
</svg>

